<!-- Generated by IcoMoon.io -->
<svg version="1.1" xmlns="http://www.w3.org/2000/svg" width="39" height="32" viewBox="0 0 39 32">
<title>education</title>
<path fill="#fff" d="M6.92 23.498h-0.010c0.517 0 0.937 0.419 0.937 0.937v0.926c0 0.517-0.419 0.937-0.937 0.937h0.010c-0.517 0-0.937-0.419-0.937-0.937v-0.926c0-0.517 0.419-0.937 0.937-0.937z"></path>
<path fill="#fff" d="M7.628 26.162c-0.167 0.216-0.426 0.354-0.718 0.354s-0.551-0.138-0.716-0.352l-0.002-0.002c-0.581 0.263-0.979 0.833-0.989 1.497v2.665c0 0.001 0 0.001 0 0.002 0 0.513 0.234 0.972 0.601 1.276l0.003 0.002v-2.747h0.364l0.073 2.987c0.205 0.095 0.444 0.152 0.696 0.156l0.001 0c0.041 0.005 0.088 0.008 0.135 0.008s0.095-0.003 0.141-0.009l-0.006 0.001v-3.122h0.364v3.018c0.139-0.061 0.259-0.134 0.367-0.221l-0.003 0.002v-2.393h0.385v2.029c0.195-0.268 0.312-0.604 0.312-0.967 0-0 0-0 0-0.001v0-2.685c-0.016-0.669-0.422-1.24-0.999-1.494l-0.011-0.004z"></path>
<path fill="#fff" d="M7.285 11.374l-7.285-3.309 19.564-8.065 19.512 7.951-19.543 8.242-10.167-3.788 7.524-4.641-9.179 4.641s-0.333 9.98-0.302 10.406c-0.078 0.217-0.281 0.369-0.52 0.369s-0.443-0.152-0.519-0.365l-0.001-0.004c-0.291-0.843 0.25-10.479 0.25-10.479z"></path>
<path fill="#fff" d="M9.147 13.362v8.554c1.087 0.668 2.381 1.106 3.768 1.216l0.030 0.002c2.643 0.343 6.494 1.717 13.185 0 4.516-1.155 3.913-1.644 3.913-1.644v-8.127l-10.511 4.402z"></path>
</svg>
