<!-- Generated by IcoMoon.io -->
<svg version="1.1" xmlns="http://www.w3.org/2000/svg" width="29" height="32" viewBox="0 0 29 32">
<title>health</title>
<path fill="#6d6e71" d="M14.643 0c-0.188-0.024-0.406-0.038-0.627-0.038-1.485 0-2.823 0.626-3.766 1.629l-0.003 0.003c-1.656 1.955-1.532 5.939-1.532 5.939s-0.411-0.436-0.436 0-0.349 3.586 0.1 3.499 1.046 0.585 1.245 1.307c0.165 0.562 0.326 1.012 0.508 1.452l-0.035-0.095c0.224 0.61 0.896 0.361 0.822 2.328s0 4.781 0 4.781 0.697 2.59 2.49 2.665 1.32 0 1.32 0z"></path>
<path fill="#6d6e71" d="M14.394 0c0.198-0.027 0.426-0.042 0.658-0.042 1.469 0 2.794 0.613 3.735 1.597l0.002 0.002c1.656 1.955 1.507 5.939 1.507 5.939s0.411-0.436 0.436 0 0.349 3.586-0.1 3.499-1.046 0.585-1.245 1.307c-0.153 0.574-0.306 1.039-0.482 1.492l0.033-0.098c-0.224 0.61-0.896 0.361-0.822 2.328s0 4.781 0 4.781-0.697 2.59-2.49 2.665-1.32 0-1.32 0z"></path>
<path fill="#6d6e71" d="M27.306 20.532s-1.805-1.98-7.62-2.764h-0.486v2.154c-0.018 2.548-2.026 4.622-4.546 4.744l-0.011 0v2.914c0 0.062 0.224 2.191 2.951 2.054s2.951-1.395 2.988-1.556v-2.104c-1.016-0.148-1.787-1.014-1.787-2.059 0-1.148 0.931-2.079 2.079-2.079s2.079 0.931 2.079 2.079c0 1.045-0.771 1.91-1.776 2.057l-0.011 0.001v2.204c0 0.075-0.286 1.918-3.536 2.079h-0.261c-0.087 0.009-0.187 0.014-0.289 0.014-1.533 0-2.802-1.136-3.009-2.613l-0.002-0.016v-2.951c-2.462-0.206-4.383-2.255-4.383-4.753 0-0.006 0-0.011 0-0.017v0.001-2.191h-0.286s-2.092 0.585-3.835 0.921-5.142 1.594-5.441 5.528 0 4.657 0 4.657 1.805 1.693 6.462 2.378c2.48 0.49 5.332 0.77 8.249 0.77s5.769-0.28 8.529-0.816l-0.28 0.045s4.981-0.971 5.765-2.814-0.212-6.126-1.544-7.869zM8.33 25.861h-1.245v1.756h-1.009v-1.756h-1.245v-0.959h1.245v-1.768h0.971v1.768h1.245z"></path>
<path fill="#6d6e71" d="M22.363 23.919c0 0.825-0.669 1.494-1.494 1.494s-1.494-0.669-1.494-1.494c0-0.825 0.669-1.494 1.494-1.494s1.494 0.669 1.494 1.494z"></path>
</svg>
