<!-- Generated by IcoMoon.io -->
<svg version="1.1" xmlns="http://www.w3.org/2000/svg" width="33" height="32" viewBox="0 0 33 32">
<title>help</title>
<path fill="#6d6e71" d="M17.026 21.222h-0.209c2.070 0.015 4.091 0.159 6.074 0.424l-0.246-0.027c-1.672-0.253-3.601-0.398-5.564-0.398-0.020 0-0.039 0-0.059 0h0.003z"></path>
<path fill="#6d6e71" d="M22.645 21.619c4.73 0.701 8.026 2.26 8.026 4.081 0 2.47-6.111 4.468-13.604 4.468s-13.604-1.999-13.604-4.468 5.954-4.437 13.353-4.479h-0.377c-9.114 0-16.439 2.417-16.439 5.389s7.325 5.389 16.439 5.389 16.429-2.417 16.429-5.389c0-2.26-4.228-4.186-10.224-4.992z"></path>
<path fill="#6d6e71" d="M6.279 9.889s0.345 0 0.858-1.046c0.576-1.256 3.861-8.267 3.861-8.267s1.716-1.664 1.371 0.732-2.784 7.67-2.784 7.67l3.673-7.325s1.706-1.873 1.319 0.439c-0.68 2.64-1.518 4.92-2.55 7.090l0.101-0.236 3.139-5.975s0.984 0 0.638 1.894-1.12 5.305-1.12 5.305l1.413-4.458s0.293-0.387 0.251 1.423 0 6.163 0 6.163-5.285-2.794-7.325-1.915c0 0 7.325 1.182 7.325 4.112s0.241 6.362-0.251 7.587 0.502 4.939 0.324 5.232-8.487 0.105-8.194-0.879c0.617-1.123 0.98-2.461 0.98-3.883 0-0.187-0.006-0.373-0.019-0.558l0.001 0.025c-0.052-3.139-0.241-3.725-2.093-5.724-1.266-1.371-1.266-3.139-2.491-4.552-1.404-1.316-2.412-3.039-2.835-4.98l-0.012-0.064c-0.691-2.784 1.957-0.492 1.957-0.492s0.858 2.784 2.459 2.679z"></path>
<path fill="#6d6e71" d="M27.207 9.753s-0.356 0.209-0.931-0.921-3.882-8.267-3.882-8.267-1.716-1.664-1.371 0.732 2.742 7.681 2.742 7.681l-3.673-7.325s-1.706-1.873-1.319 0.439c0.687 2.644 1.524 4.924 2.552 7.097l-0.103-0.243-3.139-5.975s-0.984 0-0.638 1.894 1.12 5.305 1.12 5.305l-1.402-4.426s-0.293-0.387-0.241 1.423 0 6.163 0 6.163 5.232-2.794 7.325-1.915c0 0-7.325 1.182-7.325 4.112s-0.251 6.362 0.241 7.587-0.502 4.939-0.324 5.232 8.497 0.105 8.194-0.879c-0.618-1.124-0.982-2.463-0.982-3.887 0-0.197 0.007-0.393 0.021-0.587l-0.001 0.026c0.052-3.139 0.241-3.725 2.093-5.724 1.277-1.371 1.277-3.139 2.491-4.552 1.392-1.304 2.394-3.007 2.824-4.927l0.012-0.064c0.691-2.784-1.946-0.492-1.946-0.492s-1.287 2.752-2.334 2.491z"></path>
</svg>
