<!-- Generated by IcoMoon.io -->
<svg version="1.1" xmlns="http://www.w3.org/2000/svg" width="53" height="32" viewBox="0 0 53 32">
<title>house</title>
<path fill="#6d6e71" d="M49.32 2.451h-25.762v-2.451h-3.525v2.451h-4.352l-4.076 7.906h2.031v3.293l-13.636 7.993h2.539l-0.087 10.357h25.864v-8.791h8.123v8.704h14.578v-22.020l1.842 0.087zM5.802 27.387h-1.697v-0.914h1.697zM5.802 25.516h-1.697v-0.856h1.697zM8.239 27.387h-1.697v-0.914h1.625zM8.239 25.516h-1.697v-0.856h1.625zM11.141 27.387h-1.683v-0.914h1.625zM11.141 25.516h-1.683v-0.856h1.625zM13.578 27.387h-1.683v-0.914h1.625zM13.578 25.516h-1.683v-0.856h1.625zM39.688 14.201h4.468v0.914h-4.598zM15.608 13.926h4.468v0.914h-4.468zM20.076 15.275v4.018h-1.944v-4.018zM15.608 15.275h1.958v4.018h-1.958zM19.351 27.895h-1.944v-4.033h1.958zM22.252 27.895h-1.944v-4.033h1.958zM22.252 23.369h-4.845v-0.928h4.874zM23.006 19.293h-1.944v-4.018h1.958zM25.516 19.293h-1.944v-4.018h1.958zM25.516 14.84h-4.453v-0.914h4.468zM29.868 19.409h-2.785v-2.8h2.771zM29.868 15.956h-2.742v-0.841h2.756zM33.712 19.409h-2.756v-2.8h2.771zM33.712 15.956h-2.756v-0.841h2.756zM37.469 19.409h-2.655v-2.8h2.756zM37.469 15.956h-2.655v-0.841h2.756zM41.429 19.568h-1.871v-4.033h1.958zM42.067 15.536h1.958v4.033h-1.958zM44.635 27.895h-1.958v-4.033h1.958zM47.536 27.895h-1.944v-4.033h1.958zM47.536 23.369h-4.859v-0.928h4.874zM45.2 19.568v-4.033h1.958v4.033zM49.552 19.568h-2.002v-4.033h1.958zM49.552 15.115h-4.439v-0.914h4.468z"></path>
</svg>
