<!-- Generated by IcoMoon.io -->
<svg version="1.1" xmlns="http://www.w3.org/2000/svg" width="21" height="32" viewBox="0 0 21 32">
<title>mentor</title>
<path fill="#6d6e71" d="M0 0.040h1.855v25.88h-1.855v-25.88z"></path>
<path fill="#6d6e71" d="M1.855 25.921v5.656l1.905-2.5 1.895 2.924v-6.079h-3.801z"></path>
<path fill="#6d6e71" d="M1.573 20.497h2.178v0.877h-2.178v-0.877z"></path>
<path fill="#6d6e71" d="M20.063 0.071l-16.807-0.071-0.111 25.88 16.786 0.333c0.006 0 0.013 0 0.020 0 0.735 0 1.331-0.596 1.331-1.331 0-0 0-0 0-0v0l0.101-23.43c0.001-0.015 0.001-0.033 0.001-0.050 0-0.732-0.591-1.326-1.321-1.331h-0zM13.752 7.128h-2.218v4.446h-1.603v-4.456h-2.158v-1.391h2.188v-2.016h1.573v2.016h2.228z"></path>
</svg>
