<!-- Generated by IcoMoon.io -->
<svg version="1.1" xmlns="http://www.w3.org/2000/svg" width="31" height="32" viewBox="0 0 31 32">
<title>protect</title>
<path fill="#6d6e71" d="M15.611 0c-4.26 3.519-9.618 5.853-15.492 6.428l-0.119 0.009s0.207 20.805 15.611 25.563c0 0 15.342-4.343 15.756-25.697 0 0-7.702 0.487-15.756-6.303zM15.611 28.071c-11.6-3.597-11.765-19.281-11.765-19.281 4.525-0.442 8.57-2.205 11.823-4.891l-0.037 0.030c6.074 5.121 11.89 4.758 11.89 4.758-0.321 16.109-11.89 19.385-11.89 19.385z"></path>
<path fill="#6d6e71" d="M15.632 5.183c-2.868 2.384-6.479 3.969-10.44 4.368l-0.082 0.007s0.145 14.015 10.522 17.228c0 0 10.366-2.923 10.625-17.322 0 0-5.193 0.332-10.625-4.281zM13.165 21.219l-5.318-5.048 1.741-1.254 3.431 3.493 8.2-8.117 2.239 2.146z"></path>
</svg>
