<svg aria-hidden="true" style="position: absolute; width: 0; height: 0; overflow: hidden;" version="1.1" xmlns="http://www.w3.org/2000/svg" xmlns:xlink="http://www.w3.org/1999/xlink">
<defs>
<symbol id="icon-education" viewBox="0 0 39 32">
<title>education</title>
<path fill="#ccc" style="fill: var(--color1, #5fb0de)" d="M6.92 23.498h-0.010c0.517 0 0.937 0.419 0.937 0.937v0.926c0 0.517-0.419 0.937-0.937 0.937h0.010c-0.517 0-0.937-0.419-0.937-0.937v-0.926c0-0.517 0.419-0.937 0.937-0.937z"></path>
<path fill="#ccc" style="fill: var(--color1, #5fb0de)" d="M7.628 26.162c-0.167 0.216-0.426 0.354-0.718 0.354s-0.551-0.138-0.716-0.352l-0.002-0.002c-0.581 0.263-0.979 0.833-0.989 1.497v2.665c0 0.001 0 0.001 0 0.002 0 0.513 0.234 0.972 0.601 1.276l0.003 0.002v-2.747h0.364l0.073 2.987c0.205 0.095 0.444 0.152 0.696 0.156l0.001 0c0.041 0.005 0.088 0.008 0.135 0.008s0.095-0.003 0.141-0.009l-0.006 0.001v-3.122h0.364v3.018c0.139-0.061 0.259-0.134 0.367-0.221l-0.003 0.002v-2.393h0.385v2.029c0.195-0.268 0.312-0.604 0.312-0.967 0-0 0-0 0-0.001v0-2.685c-0.016-0.669-0.422-1.24-0.999-1.494l-0.011-0.004z"></path>
<path fill="#ccc" style="fill: var(--color1, #5fb0de)" d="M7.285 11.374l-7.285-3.309 19.564-8.065 19.512 7.951-19.543 8.242-10.167-3.788 7.524-4.641-9.179 4.641s-0.333 9.98-0.302 10.406c-0.078 0.217-0.281 0.369-0.52 0.369s-0.443-0.152-0.519-0.365l-0.001-0.004c-0.291-0.843 0.25-10.479 0.25-10.479z"></path>
<path fill="#ccc" style="fill: var(--color1, #5fb0de)" d="M9.147 13.362v8.554c1.087 0.668 2.381 1.106 3.768 1.216l0.030 0.002c2.643 0.343 6.494 1.717 13.185 0 4.516-1.155 3.913-1.644 3.913-1.644v-8.127l-10.511 4.402z"></path>
</symbol>
<symbol id="icon-health" viewBox="0 0 29 32">
<title>health</title>
<path fill="#ccc" style="fill: var(--color1, #5fb0de)" d="M14.643 0c-0.188-0.024-0.406-0.038-0.627-0.038-1.485 0-2.823 0.626-3.766 1.629l-0.003 0.003c-1.656 1.955-1.532 5.939-1.532 5.939s-0.411-0.436-0.436 0-0.349 3.586 0.1 3.499 1.046 0.585 1.245 1.307c0.165 0.562 0.326 1.012 0.508 1.452l-0.035-0.095c0.224 0.61 0.896 0.361 0.822 2.328s0 4.781 0 4.781 0.697 2.59 2.49 2.665 1.32 0 1.32 0z"></path>
<path fill="#ccc" style="fill: var(--color1, #5fb0de)" d="M14.394 0c0.198-0.027 0.426-0.042 0.658-0.042 1.469 0 2.794 0.613 3.735 1.597l0.002 0.002c1.656 1.955 1.507 5.939 1.507 5.939s0.411-0.436 0.436 0 0.349 3.586-0.1 3.499-1.046 0.585-1.245 1.307c-0.153 0.574-0.306 1.039-0.482 1.492l0.033-0.098c-0.224 0.61-0.896 0.361-0.822 2.328s0 4.781 0 4.781-0.697 2.59-2.49 2.665-1.32 0-1.32 0z"></path>
<path fill="#ccc" style="fill: var(--color1, #5fb0de)" d="M27.306 20.532s-1.805-1.98-7.62-2.764h-0.486v2.154c-0.018 2.548-2.026 4.622-4.546 4.744l-0.011 0v2.914c0 0.062 0.224 2.191 2.951 2.054s2.951-1.395 2.988-1.556v-2.104c-1.016-0.148-1.787-1.014-1.787-2.059 0-1.148 0.931-2.079 2.079-2.079s2.079 0.931 2.079 2.079c0 1.045-0.771 1.91-1.776 2.057l-0.011 0.001v2.204c0 0.075-0.286 1.918-3.536 2.079h-0.261c-0.087 0.009-0.187 0.014-0.289 0.014-1.533 0-2.802-1.136-3.009-2.613l-0.002-0.016v-2.951c-2.462-0.206-4.383-2.255-4.383-4.753 0-0.006 0-0.011 0-0.017v0.001-2.191h-0.286s-2.092 0.585-3.835 0.921-5.142 1.594-5.441 5.528 0 4.657 0 4.657 1.805 1.693 6.462 2.378c2.48 0.49 5.332 0.77 8.249 0.77s5.769-0.28 8.529-0.816l-0.28 0.045s4.981-0.971 5.765-2.814-0.212-6.126-1.544-7.869zM8.33 25.861h-1.245v1.756h-1.009v-1.756h-1.245v-0.959h1.245v-1.768h0.971v1.768h1.245z"></path>
<path fill="#ccc" style="fill: var(--color1, #5fb0de)" d="M22.363 23.919c0 0.825-0.669 1.494-1.494 1.494s-1.494-0.669-1.494-1.494c0-0.825 0.669-1.494 1.494-1.494s1.494 0.669 1.494 1.494z"></path>
</symbol>
<symbol id="icon-help" viewBox="0 0 33 32">
<title>help</title>
<path fill="#ccc" style="fill: var(--color1, #5fb0de)" d="M17.026 21.222h-0.209c2.070 0.015 4.091 0.159 6.074 0.424l-0.246-0.027c-1.672-0.253-3.601-0.398-5.564-0.398-0.020 0-0.039 0-0.059 0h0.003z"></path>
<path fill="#ccc" style="fill: var(--color1, #5fb0de)" d="M22.645 21.619c4.73 0.701 8.026 2.26 8.026 4.081 0 2.47-6.111 4.468-13.604 4.468s-13.604-1.999-13.604-4.468 5.954-4.437 13.353-4.479h-0.377c-9.114 0-16.439 2.417-16.439 5.389s7.325 5.389 16.439 5.389 16.429-2.417 16.429-5.389c0-2.26-4.228-4.186-10.224-4.992z"></path>
<path fill="#ccc" style="fill: var(--color1, #5fb0de)" d="M6.279 9.889s0.345 0 0.858-1.046c0.576-1.256 3.861-8.267 3.861-8.267s1.716-1.664 1.371 0.732-2.784 7.67-2.784 7.67l3.673-7.325s1.706-1.873 1.319 0.439c-0.68 2.64-1.518 4.92-2.55 7.090l0.101-0.236 3.139-5.975s0.984 0 0.638 1.894-1.12 5.305-1.12 5.305l1.413-4.458s0.293-0.387 0.251 1.423 0 6.163 0 6.163-5.285-2.794-7.325-1.915c0 0 7.325 1.182 7.325 4.112s0.241 6.362-0.251 7.587 0.502 4.939 0.324 5.232-8.487 0.105-8.194-0.879c0.617-1.123 0.98-2.461 0.98-3.883 0-0.187-0.006-0.373-0.019-0.558l0.001 0.025c-0.052-3.139-0.241-3.725-2.093-5.724-1.266-1.371-1.266-3.139-2.491-4.552-1.404-1.316-2.412-3.039-2.835-4.98l-0.012-0.064c-0.691-2.784 1.957-0.492 1.957-0.492s0.858 2.784 2.459 2.679z"></path>
<path fill="#ccc" style="fill: var(--color1, #5fb0de)" d="M27.207 9.753s-0.356 0.209-0.931-0.921-3.882-8.267-3.882-8.267-1.716-1.664-1.371 0.732 2.742 7.681 2.742 7.681l-3.673-7.325s-1.706-1.873-1.319 0.439c0.687 2.644 1.524 4.924 2.552 7.097l-0.103-0.243-3.139-5.975s-0.984 0-0.638 1.894 1.12 5.305 1.12 5.305l-1.402-4.426s-0.293-0.387-0.241 1.423 0 6.163 0 6.163 5.232-2.794 7.325-1.915c0 0-7.325 1.182-7.325 4.112s-0.251 6.362 0.241 7.587-0.502 4.939-0.324 5.232 8.497 0.105 8.194-0.879c-0.618-1.124-0.982-2.463-0.982-3.887 0-0.197 0.007-0.393 0.021-0.587l-0.001 0.026c0.052-3.139 0.241-3.725 2.093-5.724 1.277-1.371 1.277-3.139 2.491-4.552 1.392-1.304 2.394-3.007 2.824-4.927l0.012-0.064c0.691-2.784-1.946-0.492-1.946-0.492s-1.287 2.752-2.334 2.491z"></path>
</symbol>
<symbol id="icon-house" viewBox="0 0 53 32">
<title>house</title>
<path fill="#ccc" style="fill: var(--color1, #5fb0de)" d="M49.32 2.451h-25.762v-2.451h-3.525v2.451h-4.352l-4.076 7.906h2.031v3.293l-13.636 7.993h2.539l-0.087 10.357h25.864v-8.791h8.123v8.704h14.578v-22.020l1.842 0.087zM5.802 27.387h-1.697v-0.914h1.697zM5.802 25.516h-1.697v-0.856h1.697zM8.239 27.387h-1.697v-0.914h1.625zM8.239 25.516h-1.697v-0.856h1.625zM11.141 27.387h-1.683v-0.914h1.625zM11.141 25.516h-1.683v-0.856h1.625zM13.578 27.387h-1.683v-0.914h1.625zM13.578 25.516h-1.683v-0.856h1.625zM39.688 14.201h4.468v0.914h-4.598zM15.608 13.926h4.468v0.914h-4.468zM20.076 15.275v4.018h-1.944v-4.018zM15.608 15.275h1.958v4.018h-1.958zM19.351 27.895h-1.944v-4.033h1.958zM22.252 27.895h-1.944v-4.033h1.958zM22.252 23.369h-4.845v-0.928h4.874zM23.006 19.293h-1.944v-4.018h1.958zM25.516 19.293h-1.944v-4.018h1.958zM25.516 14.84h-4.453v-0.914h4.468zM29.868 19.409h-2.785v-2.8h2.771zM29.868 15.956h-2.742v-0.841h2.756zM33.712 19.409h-2.756v-2.8h2.771zM33.712 15.956h-2.756v-0.841h2.756zM37.469 19.409h-2.655v-2.8h2.756zM37.469 15.956h-2.655v-0.841h2.756zM41.429 19.568h-1.871v-4.033h1.958zM42.067 15.536h1.958v4.033h-1.958zM44.635 27.895h-1.958v-4.033h1.958zM47.536 27.895h-1.944v-4.033h1.958zM47.536 23.369h-4.859v-0.928h4.874zM45.2 19.568v-4.033h1.958v4.033zM49.552 19.568h-2.002v-4.033h1.958zM49.552 15.115h-4.439v-0.914h4.468z"></path>
</symbol>
<symbol id="icon-mentor" viewBox="0 0 21 32">
<title>mentor</title>
<path fill="#ccc" style="fill: var(--color1, #5fb0de)" d="M0 0.040h1.855v25.88h-1.855v-25.88z"></path>
<path fill="#ccc" style="fill: var(--color1, #5fb0de)" d="M1.855 25.921v5.656l1.905-2.5 1.895 2.924v-6.079h-3.801z"></path>
<path fill="#ccc" style="fill: var(--color1, #5fb0de)" d="M1.573 20.497h2.178v0.877h-2.178v-0.877z"></path>
<path fill="#ccc" style="fill: var(--color1, #5fb0de)" d="M20.063 0.071l-16.807-0.071-0.111 25.88 16.786 0.333c0.006 0 0.013 0 0.020 0 0.735 0 1.331-0.596 1.331-1.331 0-0 0-0 0-0v0l0.101-23.43c0.001-0.015 0.001-0.033 0.001-0.050 0-0.732-0.591-1.326-1.321-1.331h-0zM13.752 7.128h-2.218v4.446h-1.603v-4.456h-2.158v-1.391h2.188v-2.016h1.573v2.016h2.228z"></path>
</symbol>
<symbol id="icon-protect" viewBox="0 0 31 32">
<title>protect</title>
<path fill="#ccc" style="fill: var(--color1, #5fb0de)" d="M15.611 0c-4.26 3.519-9.618 5.853-15.492 6.428l-0.119 0.009s0.207 20.805 15.611 25.563c0 0 15.342-4.343 15.756-25.697 0 0-7.702 0.487-15.756-6.303zM15.611 28.071c-11.6-3.597-11.765-19.281-11.765-19.281 4.525-0.442 8.57-2.205 11.823-4.891l-0.037 0.030c6.074 5.121 11.89 4.758 11.89 4.758-0.321 16.109-11.89 19.385-11.89 19.385z"></path>
<path fill="#ccc" style="fill: var(--color1, #5fb0de)" d="M15.632 5.183c-2.868 2.384-6.479 3.969-10.44 4.368l-0.082 0.007s0.145 14.015 10.522 17.228c0 0 10.366-2.923 10.625-17.322 0 0-5.193 0.332-10.625-4.281zM13.165 21.219l-5.318-5.048 1.741-1.254 3.431 3.493 8.2-8.117 2.239 2.146z"></path>
</symbol>
</defs>
</svg>
